<svg width="418" height="274" viewBox="0 0 418 274" fill="none" xmlns="http://www.w3.org/2000/svg">
<path d="M409.998 64.4587L403.473 96.061L399.273 91.9633L392.127 97.0633L386.666 90.2792L374.421 99.1837L363.955 81.6815L352.282 88.5201L347.652 82.1383L332.83 90.4906L328.371 80.9383L338.762 30.6133L394.466 42.1156L409.998 64.4587Z" fill="#EBEBEB"/>
<path d="M394.466 42.1162L409.998 64.4594L390.675 60.4708L394.466 42.1162Z" fill="#DBDBDB"/>
<path d="M402.082 102.375L392.516 148.738L317.482 133.247L326.98 87.2588L331.439 96.8042L346.268 88.452L350.891 94.8338L362.571 88.002L373.03 105.504L385.282 96.5997L390.736 103.377L397.889 98.2838L402.082 102.375Z" fill="#EBEBEB"/>
<path d="M294.689 96.9409L218.223 101.673L212.148 3.51818L268.93 0L289.773 17.4886L294.689 96.9409Z" fill="#EBEBEB"/>
<path d="M268.93 0L289.773 17.4886L270.082 18.7091L268.93 0Z" fill="#DBDBDB"/>
<path d="M247.759 66.0479L247.459 63.832C246.689 59.2434 247.943 54.1093 251.932 48.7434C255.532 43.9706 257.482 40.5616 257.264 36.6888C257.018 32.3252 254.12 29.5706 248.727 29.7888C245.645 29.9489 242.684 31.0428 240.239 32.9252L237.886 27.6547C240.614 25.4388 245.386 23.8025 249.92 23.5638C259.759 23.0184 264.545 28.8411 264.92 35.3388C265.248 41.1547 262.234 45.5252 258.402 50.632C254.884 55.2888 253.732 59.1275 254.229 63.4706L254.441 65.6934L247.759 66.0479ZM246.545 78.1229C246.368 74.9593 248.379 72.6138 251.373 72.4502C254.366 72.2866 256.548 74.3866 256.725 77.557C256.889 80.5502 255.054 82.9638 251.891 83.1411C248.87 83.3116 246.689 81.1161 246.518 78.1229H246.545Z" fill="#DBDBDB"/>
<path d="M56.4954 49.3503L48.8045 45.8662L47.734 48.2185C47.576 48.5546 47.3293 48.8414 47.0206 49.048C46.7119 49.2546 46.3528 49.3733 45.9817 49.3912C45.5591 49.4051 45.1378 49.4461 44.7204 49.5139C44.354 49.5683 43.9797 49.5222 43.6375 49.3805C43.2952 49.2388 42.9979 49.0069 42.7772 48.7094L41.2704 46.6026L34.4045 51.5253L35.9113 53.6321C36.1209 53.9362 36.2442 54.2914 36.2682 54.6599C36.2922 55.0284 36.216 55.3966 36.0476 55.7253C35.8532 56.1003 35.678 56.4848 35.5226 56.8776C35.3876 57.2239 35.1607 57.5268 34.8664 57.7539C34.5721 57.9809 34.2214 58.1235 33.8522 58.1662L31.2817 58.4185L32.1067 66.8253L34.6908 66.5662C35.0614 66.5366 35.4331 66.6086 35.7658 66.7743C36.0986 66.9401 36.3799 67.1935 36.5795 67.5071C36.6886 67.6844 36.8045 67.8548 36.9272 68.0253C37.0499 68.1958 37.1727 68.3594 37.3022 68.523C37.5375 68.8093 37.6888 69.1552 37.7393 69.5223C37.7899 69.8894 37.7377 70.2634 37.5886 70.6026L36.5113 72.9753L44.209 76.4662L45.2795 74.1003C45.439 73.7644 45.6871 73.4784 45.997 73.273C46.307 73.0675 46.6671 72.9505 47.0386 72.9344C47.4565 72.9172 47.873 72.8762 48.2863 72.8117C48.6527 72.7573 49.027 72.8034 49.3692 72.9451C49.7114 73.0868 50.0088 73.3187 50.2295 73.6162L51.7363 75.723L58.609 70.8003L57.1022 68.6935C56.8862 68.3922 56.7589 68.0364 56.7348 67.6664C56.7107 67.2964 56.7907 66.9271 56.9658 66.6003C57.1558 66.2275 57.3264 65.8452 57.4772 65.4548C57.6083 65.106 57.8341 64.8006 58.1292 64.573C58.4243 64.3454 58.7769 64.2045 59.1477 64.1662L61.7317 63.9071L60.8999 55.5003L58.3158 55.7526C57.9476 55.7849 57.5775 55.7148 57.2466 55.5499C56.9157 55.3851 56.6368 55.1319 56.4408 54.8185C56.3249 54.6412 56.209 54.4708 56.0863 54.3003C55.9636 54.1298 55.8408 53.9594 55.7113 53.8026C55.4776 53.5128 55.3274 53.1647 55.2769 52.7958C55.2265 52.427 55.2777 52.0513 55.4249 51.7094L56.4954 49.3503ZM52.1317 57.1299C52.9291 58.2425 53.3785 59.5666 53.4233 60.9347C53.468 62.3028 53.106 63.6534 52.3831 64.8158C51.6602 65.9781 50.6088 66.9 49.3619 67.4648C48.115 68.0296 46.7287 68.2119 45.3782 67.9887C44.0277 67.7656 42.7737 67.1469 41.7748 66.211C40.7759 65.2751 40.077 64.064 39.7665 62.7308C39.4559 61.3977 39.5477 60.0024 40.0302 58.7214C40.5128 57.4405 41.3643 56.3314 42.4772 55.5344C43.9691 54.466 45.8243 54.0338 47.6348 54.333C49.4453 54.6322 51.0629 55.6382 52.1317 57.1299Z" fill="#EBEBEB"/>
<path d="M404.155 160.896L399.027 163.855L399.934 165.423C400.069 165.648 400.137 165.907 400.129 166.17C400.12 166.432 400.036 166.686 399.886 166.902C399.73 167.148 399.58 167.4 399.443 167.666C399.331 167.901 399.154 168.099 398.933 168.237C398.712 168.375 398.456 168.446 398.196 168.443H396.396V174.368H398.209C398.47 174.365 398.726 174.437 398.947 174.574C399.168 174.712 399.345 174.91 399.457 175.146C399.593 175.411 399.743 175.664 399.9 175.909C400.05 176.125 400.134 176.379 400.142 176.642C400.151 176.904 400.083 177.164 399.948 177.389L399.041 178.957L404.168 181.916L405.082 180.341C405.214 180.118 405.406 179.935 405.636 179.815C405.866 179.695 406.125 179.641 406.384 179.659H407.257C407.516 179.641 407.774 179.696 408.004 179.816C408.234 179.936 408.426 180.118 408.559 180.341L409.473 181.923L414.593 178.964L413.686 177.389C413.557 177.163 413.494 176.905 413.504 176.645C413.513 176.384 413.596 176.132 413.741 175.916C413.898 175.671 414.048 175.411 414.184 175.152C414.296 174.917 414.473 174.719 414.694 174.581C414.915 174.443 415.171 174.372 415.432 174.375H417.246V168.45H415.418C415.158 168.453 414.902 168.382 414.681 168.244C414.46 168.106 414.283 167.908 414.171 167.673C414.034 167.414 413.884 167.155 413.727 166.909C413.582 166.693 413.5 166.441 413.49 166.181C413.481 165.92 413.544 165.663 413.673 165.436L414.58 163.861L409.459 160.902L408.546 162.457C408.413 162.68 408.221 162.862 407.991 162.983C407.761 163.103 407.502 163.157 407.243 163.139H406.807H406.371C406.111 163.156 405.851 163.102 405.62 162.982C405.389 162.861 405.196 162.68 405.061 162.457L404.155 160.896ZM406.807 166.555C407.768 166.553 408.707 166.837 409.506 167.37C410.306 167.903 410.929 168.661 411.297 169.548C411.666 170.436 411.762 171.412 411.575 172.355C411.388 173.297 410.926 174.162 410.246 174.842C409.567 175.521 408.701 175.984 407.759 176.171C406.817 176.358 405.84 176.261 404.953 175.893C404.065 175.525 403.307 174.901 402.774 174.102C402.242 173.303 401.958 172.363 401.959 171.402C401.958 170.765 402.083 170.134 402.326 169.545C402.569 168.956 402.926 168.421 403.377 167.97C403.827 167.519 404.362 167.161 404.95 166.917C405.539 166.673 406.17 166.548 406.807 166.548V166.555Z" fill="#EBEBEB"/>
<path d="M72.0547 24.1565L67.357 27.7565L68.4411 29.1952C68.6028 29.4002 68.7022 29.6473 68.7276 29.9071C68.753 30.167 68.7032 30.4287 68.5842 30.6611C68.4538 30.9265 68.3399 31.1997 68.2433 31.4792C68.1593 31.7255 68.0082 31.9434 67.807 32.1084C67.6059 32.2734 67.3626 32.379 67.1047 32.4133L65.3047 32.6452L66.0683 38.5156L67.8683 38.2838C68.1303 38.2473 68.3974 38.2855 68.6386 38.3941C68.8799 38.5026 69.0855 38.6771 69.232 38.8974C69.3961 39.1346 69.5737 39.3623 69.7638 39.5792C69.9394 39.7724 70.0559 40.012 70.0995 40.2694C70.143 40.5268 70.1117 40.7914 70.0092 41.0315L69.3274 42.7088L74.782 44.9792L75.4638 43.302C75.5653 43.0614 75.7321 42.854 75.9454 42.7034C76.1587 42.5527 76.4099 42.4648 76.6706 42.4497L77.107 42.402L77.5365 42.3338C77.7888 42.2862 78.0494 42.3088 78.2898 42.3989C78.5302 42.4891 78.7413 42.6434 78.9001 42.8452L80.0115 44.2974L84.7092 40.6974L83.6115 39.2588C83.453 39.051 83.3556 38.803 83.3303 38.5428C83.305 38.2826 83.3528 38.0206 83.4683 37.7861C83.5976 37.5224 83.7114 37.2515 83.8092 36.9747C83.8933 36.7285 84.0444 36.5106 84.2455 36.3455C84.4467 36.1805 84.69 36.0749 84.9479 36.0406L86.7479 35.8088L85.9842 29.9383L84.1842 30.1702C83.9229 30.2074 83.6563 30.1702 83.4151 30.0629C83.174 29.9555 82.9679 29.7824 82.8206 29.5633C82.6501 29.3179 82.4729 29.0861 82.282 28.8815C82.1231 28.6842 82.0203 28.4478 81.9844 28.1971C81.9484 27.9463 81.9805 27.6905 82.0774 27.4565L82.7592 25.7792L77.3047 23.5088L76.6229 25.1861C76.5201 25.4258 76.3529 25.6323 76.1399 25.7827C75.9269 25.9332 75.6763 26.0216 75.4161 26.0383L74.9797 26.0792L74.5774 26.0929C74.3251 26.1404 74.0646 26.1179 73.8242 26.0277C73.5837 25.9376 73.3726 25.7833 73.2138 25.5815L72.0547 24.1565ZM75.4161 29.427C76.3658 29.3049 77.3305 29.4668 78.1883 29.8923C79.0461 30.3178 79.7587 30.9879 80.2362 31.8179C80.7137 32.648 80.9347 33.6008 80.8712 34.5563C80.8078 35.5118 80.4628 36.427 79.8798 37.1867C79.2968 37.9463 78.5018 38.5162 77.5953 38.8246C76.6887 39.133 75.7111 39.166 74.7858 38.9194C73.8606 38.6728 73.029 38.1577 72.3961 37.4391C71.7633 36.7205 71.3574 35.8305 71.2297 34.8815C71.1445 34.2482 71.1853 33.6043 71.3499 32.9868C71.5144 32.3694 71.7994 31.7905 72.1885 31.2836C72.5776 30.7767 73.063 30.3517 73.6169 30.0331C74.1708 29.7144 74.7823 29.5084 75.4161 29.427Z" fill="#EBEBEB"/>
<path d="M36.9544 177.989C37.2106 171.398 37.1195 164.798 36.6817 158.216C35.7062 144.626 33.6335 131.136 30.484 117.88C28.7522 110.421 26.6249 103.084 24.4022 95.7549C24.334 95.5299 23.9794 95.5912 24.0408 95.8231C30.9067 121.664 36.5385 148.323 36.1499 175.187C36.0408 182.687 35.1681 190.084 34.459 197.557C34.459 197.755 34.7658 197.837 34.8135 197.632C36.2249 191.216 36.6885 184.521 36.9544 177.989Z" fill="#EBEBEB"/>
<path d="M24.0408 95.8027C24.0408 95.8027 13.6499 122.189 15.9749 128.366C18.2999 134.544 23.0999 135.866 23.0999 135.866C23.0999 135.866 16.7385 144.948 21.184 153.464C25.6294 161.98 35.5022 161.578 36.184 171.232C36.1635 171.28 36.709 130.91 24.0408 95.8027Z" fill="#EBEBEB"/>
<path d="M35.0317 154.609C35.0485 154.565 35.0485 154.517 35.0317 154.473C33.6679 136.458 30.2877 118.654 24.9545 101.393C24.9545 101.345 24.8522 101.359 24.8658 101.393C26.9249 109.12 28.7431 116.88 30.3204 124.67C28.9234 123.347 27.2168 122.395 25.3567 121.902C25.3567 121.902 25.3022 121.943 25.3567 121.957C27.3108 122.673 29.0677 123.841 30.484 125.366C30.784 126.9 31.084 128.427 31.3635 129.961C29.0385 127.364 25.8204 126.075 22.5954 124.848C22.5881 124.851 22.5819 124.856 22.5775 124.863C22.5731 124.869 22.5708 124.877 22.5708 124.885C22.5708 124.893 22.5731 124.901 22.5775 124.908C22.5819 124.914 22.5881 124.92 22.5954 124.923C25.9567 126.286 29.2976 128.045 31.5749 130.943C32.3658 135.32 33.0613 139.714 33.6613 144.123C31.9825 142.364 29.8296 141.13 27.4635 140.57C27.3885 140.57 27.3476 140.659 27.4226 140.68C29.8532 141.395 32.0231 142.802 33.6681 144.73H33.709C33.9135 146.275 34.109 147.827 34.2954 149.386C32.9967 148.287 31.5304 147.403 29.9522 146.768C29.9113 146.768 29.884 146.816 29.9522 146.83C31.5627 147.527 33.0376 148.504 34.309 149.714C34.309 149.714 34.3431 149.714 34.3635 149.714C34.534 151.193 34.7045 152.673 34.8545 154.152C32.5132 151.322 29.4747 149.151 26.0385 147.852C26.0241 147.852 26.0102 147.858 26 147.868C25.9897 147.878 25.984 147.892 25.984 147.907C25.984 147.921 25.9897 147.935 26 147.945C26.0102 147.956 26.0241 147.961 26.0385 147.961C29.4315 149.457 32.4119 151.752 34.7249 154.65C34.7504 154.682 34.7847 154.705 34.8236 154.717C34.8625 154.73 34.9041 154.73 34.9431 154.718C35.1681 156.989 35.3726 159.259 35.5363 161.536C35.5363 161.57 35.5908 161.57 35.5908 161.536C35.4135 159.25 35.2272 156.941 35.0317 154.609Z" fill="white"/>
<path d="M26.6794 119.304C24.7976 118.133 22.6479 117.462 20.434 117.354C20.4231 117.354 20.4127 117.359 20.4051 117.366C20.3974 117.374 20.3931 117.385 20.3931 117.395C20.3931 117.406 20.3974 117.417 20.4051 117.424C20.4127 117.432 20.4231 117.436 20.434 117.436C22.5744 117.842 24.6516 118.53 26.6113 119.482C26.6931 119.502 26.7544 119.359 26.6794 119.304Z" fill="white"/>
<path d="M27.941 147.239C26.4946 146.409 24.902 145.865 23.25 145.637C23.1955 145.637 23.1887 145.712 23.25 145.725C24.8632 146.049 26.4236 146.595 27.8864 147.348C27.9478 147.382 28.0023 147.273 27.941 147.239Z" fill="white"/>
<path d="M64.2818 128.822C59.886 131.861 55.8489 135.388 52.2477 139.336C48.5338 143.516 45.6692 148.379 43.8136 153.654C39.8644 164.644 37.7409 176.206 37.5273 187.882C37.3948 194.347 38.0149 200.807 39.375 207.129C39.386 207.175 39.4143 207.215 39.454 207.241C39.4936 207.267 39.5417 207.276 39.5881 207.267C39.6346 207.258 39.6759 207.232 39.7035 207.194C39.731 207.155 39.7428 207.108 39.7363 207.061C38.0439 195.904 38.1083 184.551 39.9273 173.413C41.7136 162.504 44.5159 150.627 51.4568 141.757C55.2341 136.923 59.9454 133.125 64.6023 129.197C64.8477 128.979 64.5341 128.645 64.2818 128.822Z" fill="#EBEBEB"/>
<path d="M39.0547 180.014C41.5568 175.967 44.4973 172.208 47.8229 168.805C53.0251 163.602 57.4024 159.907 58.0842 156.47C58.7661 153.034 52.8751 150.498 52.8751 150.498C52.8751 150.498 60.0683 151.793 62.0388 148.773C64.0092 145.752 64.957 128.257 64.957 128.257C64.957 128.257 51.8661 137.605 45.7638 150.709C39.6615 163.814 39.0547 180.014 39.0547 180.014Z" fill="#EBEBEB"/>
<path d="M60.2593 144.668C59.3973 144.54 58.5235 144.51 57.6547 144.579C57.5525 144.579 57.5593 144.757 57.6547 144.764C58.5138 144.764 59.3797 144.723 60.2388 144.764C60.2487 144.761 60.2576 144.756 60.2646 144.748C60.2716 144.741 60.2765 144.732 60.2786 144.722C60.2807 144.712 60.28 144.702 60.2766 144.692C60.2732 144.683 60.2672 144.674 60.2593 144.668Z" fill="white"/>
<path d="M50.8567 161.639C49.4743 161.667 48.1078 161.939 46.8203 162.443C46.8203 162.443 46.8203 162.511 46.8203 162.505C48.1839 162.184 49.4999 162.055 50.8499 161.823C50.8675 161.815 50.8826 161.803 50.8934 161.787C50.9042 161.771 50.9103 161.752 50.9111 161.733C50.9118 161.714 50.907 161.695 50.8974 161.678C50.8878 161.661 50.8737 161.648 50.8567 161.639Z" fill="white"/>
<path d="M48.034 155.775C47.4601 155.77 46.8871 155.82 46.3227 155.925C46.3122 155.929 46.3032 155.936 46.2969 155.945C46.2905 155.954 46.2871 155.965 46.2871 155.976C46.2871 155.987 46.2905 155.998 46.2969 156.007C46.3032 156.016 46.3122 156.023 46.3227 156.027C46.8942 156.06 47.4676 156.035 48.034 155.952C48.0575 155.952 48.0801 155.943 48.0967 155.926C48.1133 155.909 48.1227 155.887 48.1227 155.863C48.1227 155.84 48.1133 155.817 48.0967 155.801C48.0801 155.784 48.0575 155.775 48.034 155.775Z" fill="white"/>
<path d="M0.675244 147.382C4.93606 148.826 9.01904 150.75 12.8457 153.116C16.8162 155.639 20.2594 158.908 22.9843 162.743C28.7177 170.724 33.1075 179.588 35.9798 188.986C37.5817 194.189 38.5702 199.562 38.9252 204.995C38.9178 205.03 38.8985 205.062 38.8706 205.084C38.8426 205.107 38.8078 205.119 38.7718 205.119C38.7359 205.119 38.701 205.107 38.6731 205.084C38.6452 205.062 38.6259 205.03 38.6184 204.995C37.4149 195.575 34.7415 186.402 30.6957 177.811C26.7207 169.391 21.7093 160.432 14.0457 154.854C9.87297 151.82 5.18206 149.829 0.50479 147.729C0.259335 147.647 0.42979 147.3 0.675244 147.382Z" fill="#EBEBEB"/>
<path d="M32.925 182.98C29.9628 180.285 26.7138 177.923 23.2364 175.937C17.8227 172.93 13.425 170.953 12.0818 168.328C10.7386 165.703 14.9182 162.293 14.9182 162.293C14.9182 162.293 9.39546 165.021 7.10455 163.009C4.81364 160.998 0 147.089 0 147.089C0 147.089 12.7568 151.623 20.7136 160.821C28.6705 170.018 32.925 182.98 32.925 182.98Z" fill="#EBEBEB"/>
<path d="M22.3365 170.175C21.0823 170.088 19.823 170.243 18.6274 170.632C18.6274 170.632 18.6274 170.693 18.6274 170.686C19.8471 170.477 21.0794 170.35 22.3161 170.305C22.4047 170.305 22.4252 170.182 22.3365 170.175Z" fill="white"/>
<path d="M11.2091 155.584C10.6369 155.538 10.0611 155.57 9.49771 155.68C9.43635 155.68 9.4568 155.789 9.49771 155.782C10.0636 155.721 10.6159 155.741 11.175 155.727C11.1924 155.728 11.2094 155.723 11.2233 155.712C11.2371 155.702 11.2469 155.687 11.2509 155.67C11.2549 155.653 11.253 155.635 11.2453 155.62C11.2377 155.604 11.2249 155.591 11.2091 155.584Z" fill="white"/>
<path d="M49.3772 222.579H20.584L24.6885 192.504L25.7385 184.793H44.2226L45.2726 192.504L49.3772 222.579Z" fill="#DBDBDB"/>
<path d="M45.2726 192.504H24.6885L25.7385 184.793H44.2226L45.2726 192.504Z" fill="#C7C7C7"/>
<path d="M46.8615 182.12H23.0933V188.652H46.8615V182.12Z" fill="#DBDBDB"/>
<path d="M2.27734 222.579L54.1024 222.416L105.927 222.354L209.577 222.238L313.227 222.354L365.052 222.416L416.877 222.579L365.052 222.75L313.227 222.804L209.577 222.92L105.927 222.804L54.1024 222.743L2.27734 222.579Z" fill="#263238"/>
<path d="M210.941 273.395C318.915 273.395 406.445 263.804 406.445 251.973C406.445 240.141 318.915 230.55 210.941 230.55C102.966 230.55 15.436 240.141 15.436 251.973C15.436 263.804 102.966 273.395 210.941 273.395Z" fill="#EBEBEB"/>
<path d="M165.43 248.428C163.841 248.967 118.289 249.11 116.543 248.032C115.861 247.623 115.473 240.989 115.18 232.957C115.118 231.226 115.071 229.432 115.03 227.619L111.396 203.319L141.852 203.121L144.723 227.428L144.607 232.773C144.607 232.773 162.075 240.512 163.861 241.917C165.648 243.321 167.018 247.889 165.43 248.428Z" fill="#EB9481"/>
<path d="M165.429 248.428C163.841 248.966 118.288 249.11 116.543 248.032C115.738 247.528 115.302 237.839 115.057 227.619L144.688 227.428L144.573 232.773C144.573 232.773 162.041 240.512 163.827 241.916C165.613 243.321 167.018 247.889 165.429 248.428Z" fill="white"/>
<path d="M165.43 248.427C163.841 248.966 118.289 249.109 116.543 248.032C115.862 247.622 115.473 240.988 115.18 232.957L144.546 232.772C144.546 232.772 162.014 240.511 163.8 241.916C165.586 243.32 167.018 247.888 165.43 248.427Z" fill="#A6A6A6"/>
<path d="M164.768 246.607C157.132 246.443 126.313 246.518 118.752 246.941C118.691 246.941 118.691 246.982 118.752 246.988C126.32 247.309 157.138 246.988 164.768 246.729C164.932 246.722 164.932 246.607 164.768 246.607Z" fill="#263238"/>
<path d="M160.889 240.287C160.04 240.268 159.196 240.425 158.411 240.749C157.626 241.073 156.916 241.556 156.328 242.169C155.255 243.261 154.649 244.728 154.637 246.259C154.637 246.307 154.719 246.307 154.725 246.259C154.979 244.751 155.713 243.365 156.819 242.308C157.925 241.251 159.343 240.581 160.862 240.396C160.876 240.399 160.891 240.397 160.904 240.389C160.917 240.382 160.926 240.369 160.93 240.355C160.934 240.34 160.931 240.325 160.924 240.312C160.916 240.3 160.903 240.29 160.889 240.287Z" fill="#263238"/>
<path d="M147.532 233.523C144.477 233.489 140.939 234.58 139.043 237.089C138.975 237.185 139.112 237.287 139.2 237.239C141.869 235.83 144.68 234.711 147.587 233.898C147.631 233.886 147.67 233.858 147.696 233.819C147.721 233.78 147.732 233.733 147.725 233.687C147.718 233.641 147.695 233.598 147.659 233.568C147.624 233.538 147.579 233.522 147.532 233.523Z" fill="#263238"/>
<path d="M149.905 234.43C146.843 234.43 143.305 235.493 141.416 237.996C141.341 238.098 141.478 238.2 141.573 238.152C144.238 236.739 147.047 235.616 149.953 234.805C149.997 234.793 150.035 234.765 150.061 234.727C150.086 234.688 150.097 234.642 150.091 234.596C150.086 234.551 150.064 234.509 150.029 234.478C149.995 234.448 149.951 234.43 149.905 234.43Z" fill="#263238"/>
<path d="M152.264 235.343C149.209 235.343 145.671 236.4 143.775 238.909C143.707 239.004 143.843 239.106 143.932 239.059C146.601 237.65 149.412 236.53 152.318 235.718C152.363 235.706 152.402 235.677 152.428 235.638C152.453 235.599 152.464 235.552 152.457 235.506C152.45 235.46 152.427 235.418 152.391 235.388C152.356 235.358 152.31 235.342 152.264 235.343Z" fill="#263238"/>
<path d="M154.63 236.257C151.568 236.223 148.03 237.313 146.141 239.823C146.066 239.918 146.209 240.02 146.298 239.973C148.966 238.563 151.778 237.443 154.684 236.632C154.729 236.619 154.768 236.591 154.794 236.552C154.819 236.513 154.83 236.466 154.823 236.42C154.816 236.374 154.793 236.332 154.757 236.302C154.722 236.272 154.676 236.256 154.63 236.257Z" fill="#263238"/>
<path d="M120.675 239.68C117.266 239.68 117.266 245.032 120.675 245.012C124.084 244.991 124.111 239.659 120.675 239.68Z" fill="#263238"/>
<path d="M150.811 225.354C149.264 224.072 147.314 225.354 146.366 226.67C144.788 228.996 143.848 231.695 143.639 234.497C143.639 234.559 143.686 234.586 143.734 234.586C143.746 234.644 143.772 234.698 143.809 234.743C143.847 234.789 143.894 234.825 143.948 234.849C144.003 234.872 144.061 234.882 144.12 234.878C144.179 234.874 144.236 234.856 144.286 234.825C146.455 233.318 148.964 231.968 150.607 229.834C151.541 228.593 152.305 226.547 150.811 225.354ZM147.089 231.859C146.039 232.629 144.955 233.345 143.932 234.157C144.477 232.629 144.948 231.088 145.643 229.616C145.965 228.91 146.334 228.226 146.748 227.57C147.43 226.554 150.402 223.991 150.716 227.311C150.893 229.132 148.336 230.945 147.089 231.859Z" fill="#263238"/>
<path d="M136.03 235.657C138.689 236.052 141.437 235.288 144.048 234.873C144.105 234.858 144.157 234.83 144.201 234.791C144.245 234.753 144.279 234.704 144.301 234.65C144.323 234.595 144.332 234.537 144.327 234.478C144.322 234.42 144.304 234.363 144.273 234.313C144.283 234.306 144.291 234.296 144.296 234.285C144.302 234.274 144.305 234.261 144.305 234.249C144.305 234.236 144.302 234.224 144.296 234.213C144.291 234.201 144.283 234.192 144.273 234.184C142.175 232.313 139.621 231.026 136.868 230.454C135.259 230.148 132.982 230.591 132.777 232.588C132.532 234.47 134.475 235.411 136.03 235.657ZM134.175 233.925C132.13 231.307 136.037 231.082 137.209 231.354C137.97 231.545 138.717 231.786 139.446 232.077C140.937 232.695 142.396 233.39 143.816 234.157C142.521 234.286 141.246 234.518 139.957 234.695C138.416 234.9 135.321 235.363 134.175 233.925Z" fill="#263238"/>
<path d="M66.6138 91.002C66.6138 91.002 101.98 151.166 102.927 155.393C104.38 161.884 112.077 225.982 112.077 225.982L148.896 225.3C148.896 225.3 142.555 168.784 136.548 150.163C132.225 136.752 101.012 92.2701 101.012 92.2701L66.6138 91.002Z" fill="#37474F"/>
<path d="M145.548 219.682C140.264 219.641 121.534 219.43 114.498 220.084C114.443 220.084 114.45 220.18 114.498 220.187C116.918 220.534 140.257 219.996 145.541 219.825C145.552 219.829 145.564 219.831 145.576 219.829C145.587 219.828 145.598 219.824 145.608 219.817C145.618 219.811 145.626 219.802 145.632 219.792C145.638 219.782 145.641 219.77 145.641 219.758C145.642 219.747 145.64 219.735 145.635 219.724C145.63 219.714 145.623 219.704 145.614 219.697C145.605 219.689 145.594 219.684 145.583 219.682C145.571 219.679 145.559 219.679 145.548 219.682Z" fill="#263238"/>
<path d="M72.6478 96.5255C74.9659 100.16 77.4205 103.719 79.7796 107.325C82.1387 110.932 84.5114 114.539 86.85 118.139C91.5137 125.412 96.0591 132.732 100.486 140.1C102.647 143.516 104.495 147.119 106.009 150.866C107.391 154.615 108.429 158.48 109.111 162.416C109.834 166.364 110.311 170.353 110.755 174.341C111.209 178.582 111.684 182.825 112.18 187.071C113.148 195.757 114.118 204.444 115.091 213.13C115.207 214.194 115.323 215.257 115.432 216.328C115.432 216.485 115.166 216.512 115.145 216.328C114.061 207.703 113.161 199.044 112.18 190.419C111.689 186.114 111.2 181.812 110.714 177.512C110.257 173.51 109.82 169.5 109.2 165.525C108.631 161.602 107.765 157.727 106.609 153.935C105.336 150.008 103.63 146.234 101.523 142.685C97.2614 135.328 92.7478 128.1 88.2341 120.866C83.7205 113.632 79.0841 106.337 74.325 99.1914C73.7387 98.3118 73.1455 97.4323 72.5318 96.5664C72.4841 96.5186 72.6068 96.4573 72.6478 96.5255Z" fill="#263238"/>
<path d="M78.2046 251.973C76.5273 251.871 33.2046 234.321 32.0046 232.657C31.9512 232.559 31.9275 232.448 31.9364 232.337C31.9364 230.843 34.9432 225.634 37.4523 218.789C37.6092 218.352 38.7273 216.321 40.2751 213.587C44.5773 206.093 52.0773 193.187 52.0773 193.187L80.3933 204.437L66.8387 224.721L64.7319 229.63C64.7319 229.63 78.0205 243.368 79.1387 245.312C80.2569 247.255 79.8751 252.068 78.2046 251.973Z" fill="#EB9481"/>
<path d="M78.2046 251.972C76.5273 251.87 33.2046 234.32 32.0046 232.656C31.9512 232.558 31.9275 232.447 31.9364 232.336C31.9364 230.843 34.9432 225.634 37.4523 218.788C37.6092 218.352 38.7273 216.32 40.2751 213.586L66.866 224.72L64.7592 229.629C64.7592 229.629 78.0478 243.368 79.166 245.311C80.2842 247.254 79.8751 252.068 78.2046 251.972Z" fill="white"/>
<path d="M78.2045 251.973C76.5273 251.871 33.2045 234.321 32.0045 232.657C31.5409 232.023 33.4772 226.112 37.4591 218.789L64.7318 229.637C64.7318 229.637 78.0204 243.362 79.1454 245.319C80.2704 247.275 79.875 252.069 78.2045 251.973Z" fill="#A6A6A6"/>
<path d="M78.2729 250.036C71.257 247.022 42.6615 235.527 35.4956 233.086C35.4342 233.086 35.4206 233.086 35.4956 233.127C42.3888 236.263 71.0729 247.527 78.2456 250.172C78.382 250.206 78.4229 250.097 78.2729 250.036Z" fill="#263238"/>
<path d="M77.0455 242.72C76.2675 242.379 75.427 242.202 74.5773 242.202C73.7276 242.202 72.8871 242.379 72.1091 242.72C70.7103 243.333 69.6016 244.461 69.0137 245.87C69.0137 245.911 69.075 245.945 69.0955 245.905C69.8993 244.597 71.1051 243.586 72.5323 243.021C73.9594 242.457 75.531 242.371 77.0114 242.775C77.0229 242.772 77.0327 242.764 77.039 242.754C77.0453 242.744 77.0476 242.732 77.0455 242.72Z" fill="#263238"/>
<path d="M67.2072 231.443C64.3913 230.264 60.6959 229.95 58.0027 231.566C57.9004 231.627 58.0027 231.771 58.0913 231.764C61.0936 231.459 64.1197 231.475 67.1186 231.811C67.1647 231.816 67.2111 231.804 67.2491 231.778C67.287 231.751 67.314 231.711 67.3248 231.666C67.3357 231.621 67.3298 231.574 67.3081 231.533C67.2865 231.492 67.2506 231.46 67.2072 231.443Z" fill="#263238"/>
<path d="M69.0549 233.175C66.239 231.995 62.5435 231.681 59.8503 233.297C59.7481 233.359 59.8503 233.502 59.939 233.495C62.9411 233.187 65.9676 233.203 68.9662 233.543C69.0124 233.548 69.0588 233.536 69.0967 233.509C69.1347 233.482 69.1616 233.443 69.1725 233.398C69.1834 233.353 69.1774 233.305 69.1558 233.264C69.1341 233.223 69.0982 233.191 69.0549 233.175Z" fill="#263238"/>
<path d="M70.9091 234.907C68.0864 233.728 64.391 233.414 61.7046 235.03C61.5955 235.091 61.7046 235.234 61.7864 235.228C64.7885 234.92 67.815 234.936 70.8137 235.275C70.8608 235.283 70.9091 235.273 70.9492 235.247C70.9892 235.221 71.0181 235.181 71.03 235.135C71.042 235.089 71.0363 235.04 71.0139 234.997C70.9915 234.955 70.9541 234.923 70.9091 234.907Z" fill="#263238"/>
<path d="M72.7568 236.639C69.9341 235.459 66.2454 235.145 63.5522 236.754C63.4432 236.823 63.5522 236.966 63.6341 236.959C66.6362 236.651 69.6627 236.667 72.6613 237.007C72.7084 237.015 72.7568 237.005 72.7968 236.979C72.8369 236.953 72.8657 236.913 72.8777 236.866C72.8897 236.82 72.8839 236.771 72.8615 236.729C72.8391 236.687 72.8018 236.654 72.7568 236.639Z" fill="#263238"/>
<path d="M39.9956 227.073C36.8115 225.805 34.8342 230.762 38.032 232.03C41.2297 233.298 43.2138 228.341 39.9956 227.073Z" fill="#263238"/>
<path d="M73.3094 225.103C72.348 223.337 70.0776 223.773 68.6935 224.653C66.3619 226.215 64.4811 228.361 63.239 230.878C63.2335 230.889 63.2306 230.901 63.2305 230.913C63.2304 230.926 63.233 230.938 63.2383 230.949C63.2435 230.96 63.2512 230.97 63.2608 230.978C63.2703 230.985 63.2815 230.991 63.2935 230.994C63.2935 231.219 63.4435 231.485 63.7094 231.43C66.2935 230.837 69.123 230.53 71.4412 229.166C72.7708 228.376 74.2162 226.773 73.3094 225.103ZM67.4117 229.732C66.1503 230.053 64.8821 230.312 63.6344 230.68C64.6665 229.437 65.7611 228.246 66.914 227.114C67.4815 226.574 68.0852 226.073 68.7208 225.614C69.7094 224.932 73.4458 223.671 72.4912 226.869C71.9662 228.635 68.9185 229.351 67.4117 229.732Z" fill="#263238"/>
<path d="M55.7388 229.104C58.057 230.468 60.8865 230.789 63.4638 231.389C63.7297 231.45 63.907 231.184 63.8865 230.952C63.8993 230.951 63.9116 230.946 63.922 230.939C63.9325 230.931 63.9409 230.921 63.9464 230.909C63.9518 230.898 63.9542 230.885 63.9533 230.872C63.9524 230.859 63.9482 230.847 63.9411 230.836C62.7009 228.315 60.8199 226.163 58.4865 224.598C57.1229 223.711 54.8388 223.268 53.8706 225.027C52.9024 226.786 54.382 228.307 55.7388 229.104ZM54.6752 226.8C53.7274 223.602 57.457 224.87 58.4456 225.559C59.0805 226.018 59.682 226.522 60.2456 227.066C61.3963 228.201 62.4886 229.393 63.5184 230.639C62.2706 230.27 61.0024 230.004 59.7411 229.684C58.2138 229.275 55.1934 228.593 54.6752 226.8Z" fill="#263238"/>
<path d="M69.041 223.588L37.3433 210.79C37.3433 210.79 76.6433 153.006 76.9296 148.704C77.1887 144.9 59.9251 111.75 59.2501 102.088C58.5137 91.6564 63.5319 83.5905 69.0546 78.5791L101.748 92.4814C101.748 92.4814 98.2978 97.9973 92.8842 101.072C92.8842 101.072 109.65 139.39 108.696 151.172C107.741 162.954 69.041 223.588 69.041 223.588Z" fill="#37474F"/>
<path d="M70.4453 217.561C65.8635 215.591 67.2067 216.088 62.5976 214.152C60.3476 213.211 45.5521 207.054 43.2749 206.543C43.2271 206.543 43.193 206.611 43.2408 206.638C45.2112 207.845 60.1294 213.743 62.3999 214.643C67.043 216.47 65.7271 215.898 70.3908 217.67C70.3977 217.68 70.407 217.687 70.4176 217.692C70.4282 217.696 70.4399 217.698 70.4514 217.697C70.463 217.696 70.4741 217.692 70.4837 217.686C70.4933 217.679 70.5011 217.67 70.5063 217.66C70.5115 217.649 70.514 217.638 70.5134 217.626C70.5129 217.615 70.5094 217.603 70.5033 217.593C70.4972 217.584 70.4887 217.575 70.4785 217.57C70.4684 217.564 70.4569 217.561 70.4453 217.561Z" fill="#263238"/>
<path d="M98.2433 100.371C94.8396 101.164 91.5094 102.245 88.2888 103.603C88.2758 103.607 88.2638 103.614 88.2535 103.623C88.2432 103.632 88.2348 103.643 88.2288 103.656C88.2228 103.668 88.2193 103.682 88.2185 103.695C88.2176 103.709 88.2195 103.723 88.224 103.736C88.2285 103.749 88.2354 103.761 88.2445 103.771C88.2537 103.781 88.2647 103.79 88.277 103.796C88.2894 103.802 88.3028 103.805 88.3165 103.806C88.3302 103.807 88.344 103.805 88.3569 103.8C91.6978 102.825 95.0933 101.912 98.3797 100.76C98.6319 100.671 98.5024 100.316 98.2433 100.371Z" fill="#263238"/>
<path d="M94.3502 99.0481C94.0325 99.6132 93.7523 100.199 93.5116 100.8C93.2762 101.257 93.1304 101.755 93.082 102.266C93.082 102.369 93.2184 102.389 93.2798 102.328C93.6218 101.919 93.8979 101.458 94.0979 100.964C94.3775 100.425 94.6639 99.8936 94.9298 99.3413C95.1139 98.939 94.5616 98.68 94.3502 99.0481Z" fill="#263238"/>
<path d="M94.759 95.9522C94.9636 95.4477 95.1613 94.95 95.3727 94.4454C95.584 93.9409 95.8499 93.4227 96.0545 92.8909C96.0545 92.8091 96.2181 92.8909 96.184 92.9522C95.9795 93.4568 95.8499 93.9886 95.6931 94.5068C95.5363 95.025 95.359 95.5431 95.1886 96.0613C94.8681 97.0227 94.5067 97.9772 94.0636 98.9113C94.6001 98.9381 95.1358 98.8449 95.6317 98.6386C96.1383 98.3144 96.5278 97.8365 96.7431 97.275C97.0295 96.7159 97.2954 96.1431 97.5886 95.5841C97.9494 94.9796 98.253 94.3427 98.4954 93.6818C98.4954 93.6 98.659 93.6818 98.6249 93.7431C98.1804 95.1406 97.5979 96.4905 96.8863 97.7727C96.5795 98.2704 96.3408 98.7954 95.7817 98.9863C95.1765 99.1556 94.5432 99.1997 93.9204 99.1159C93.8386 99.1159 93.7431 99.1159 93.7704 98.9931C94.0495 97.9638 94.3795 96.9489 94.759 95.9522Z" fill="#263238"/>
<path d="M93.3682 102.321C94.5341 104.782 95.5568 107.237 96.6409 109.691C97.725 112.146 98.6864 114.519 99.6614 116.96C101.611 121.882 103.357 126.901 104.891 131.96C105.648 134.469 106.35 136.998 106.977 139.548C107.668 142.09 108.174 144.679 108.491 147.294C108.765 149.904 108.533 152.543 107.809 155.066C107.057 157.561 106.092 159.985 104.925 162.314C104.209 163.787 103.97 163.589 104.311 162.846C105.286 160.732 107.843 154.33 107.659 148.951C107.51 146.375 107.113 143.82 106.473 141.321C105.877 138.744 105.207 136.187 104.461 133.651C103.009 128.646 101.284 123.744 99.5114 118.848C98.5159 116.121 97.4659 113.394 96.4432 110.666C95.4205 107.939 94.3978 105.43 93.2523 102.416C93.2182 102.294 93.3341 102.246 93.3682 102.321Z" fill="#263238"/>
<path d="M69.307 94.1868C69.8729 93.9755 70.6706 94.3232 71.2433 94.4187C71.9851 94.5446 72.7346 94.6197 73.4865 94.6437C74.2305 94.6699 74.9755 94.6448 75.7161 94.5687C76.4619 94.5494 77.1928 94.3556 77.8502 94.0028C78.9287 93.2171 79.8532 92.2394 80.5774 91.1187C81.4404 89.9735 82.1531 88.7224 82.6979 87.3959C82.6979 87.3141 82.8411 87.3959 82.8138 87.4505C82.5752 88.2073 82.3979 88.9709 82.132 89.7141C81.838 90.4124 81.4868 91.0851 81.082 91.7255C80.4255 93.0141 79.4547 94.1162 78.2593 94.93C76.9433 95.68 75.2524 95.6118 73.7865 95.5505C72.9363 95.5009 72.0909 95.3893 71.257 95.2164C70.657 95.0869 69.6479 94.9914 69.2661 94.4664C69.2481 94.4463 69.2348 94.4225 69.227 94.3967C69.2193 94.3709 69.2173 94.3437 69.2212 94.3171C69.2251 94.2904 69.2348 94.2649 69.2496 94.2424C69.2644 94.2199 69.284 94.2009 69.307 94.1868Z" fill="#263238"/>
<path d="M46.3911 204.729C51.6002 196.838 56.7138 188.884 61.732 180.865C66.7502 172.847 71.7002 164.768 76.582 156.627C77.7479 154.684 79.0911 152.747 79.8411 150.593C80.6593 148.254 80.1956 145.984 79.4593 143.693C78.0688 139.513 76.4435 135.416 74.5911 131.42C72.7638 127.39 70.7933 123.429 68.857 119.454C66.9206 115.479 64.8956 111.552 63.4024 107.406C62.0388 103.445 61.4865 99.3405 62.5502 95.2359C63.6138 91.1314 65.9047 87.5041 68.2979 84.0882C68.9252 83.1882 69.5729 82.295 70.207 81.3609C70.2547 81.2927 70.357 81.3609 70.3093 81.4427C67.6706 85.0018 65.1002 88.7723 63.5524 92.9518C62.7614 95.012 62.319 97.1895 62.2433 99.395C62.2304 101.634 62.5781 103.86 63.2729 105.988C64.5547 110.134 66.5797 114.054 68.4683 117.954C70.357 121.854 72.3752 125.89 74.2365 129.906C76.1568 133.948 77.8637 138.088 79.3502 142.309C79.9843 144.184 80.7138 146.147 80.6593 148.159C80.6115 150.361 79.5615 152.345 78.4706 154.2C73.6979 162.279 68.8093 170.263 63.832 178.2C58.8547 186.136 53.7342 194.072 48.5524 201.927L46.5888 204.893C46.4865 205.015 46.3092 204.872 46.3911 204.729Z" fill="#263238"/>
<path d="M103.561 55.7319C106.514 62.2092 121.425 71.1342 128.407 72.0955C133.425 72.7773 148.684 73.0228 153.914 72.2251C160.05 71.2842 155.359 54.7501 151.739 55.1796C141.784 56.3387 133.33 57.6342 130.67 57.6342C127.425 57.6342 109.868 52.0023 107.755 51.2046C102.573 49.2751 101.891 52.0569 103.561 55.7319Z" fill="#EB9481"/>
<path d="M103.657 57.4572C107.394 62.9868 119.809 72.0277 119.809 72.0277L121.534 68.2095L127.241 55.5822C127.241 55.5822 115.834 52.0027 108.328 50.3663C107.444 50.1653 106.546 50.0375 105.641 49.9845C100.848 49.7254 100.432 52.6845 103.657 57.4572Z" fill="#01A94D"/>
<path d="M103.657 57.4569C107.394 62.9865 119.809 72.0274 119.809 72.0274L121.534 68.2092C116.905 62.8297 109.753 54.6819 105.641 49.9978C100.848 49.7251 100.432 52.6842 103.657 57.4569Z" fill="#263238"/>
<path d="M117.573 69.4641C118.52 67.1391 122.734 57.7777 123.784 55.8277C123.852 55.6913 123.961 55.705 123.9 55.8277C122.072 60.4831 119.992 65.0353 117.668 69.4641C117.641 69.5459 117.532 69.5186 117.573 69.4641Z" fill="#263238"/>
<path d="M149.911 55.3505C155.966 54.5596 163.459 53.2028 169.807 55.896C170.52 56.1756 171.118 56.6872 171.504 57.3482C174.368 58.5073 174.682 60.205 174.682 60.205C177.02 62.1005 177.102 63.8869 177.102 63.8869C177.102 63.8869 180.457 65.2505 179.945 67.446C179.386 69.8732 174.791 67.446 171.45 67.6437C163.779 68.121 153.041 70.9369 150.825 71.2914L149.911 55.3505Z" fill="#EB9481"/>
<path d="M163.064 62.4956C165.307 62.3422 167.557 62.3422 169.8 62.4956C172.243 62.802 174.659 63.2921 177.027 63.9615C177.043 63.9669 177.06 63.966 177.074 63.959C177.089 63.952 177.1 63.9394 177.106 63.924C177.111 63.9086 177.11 63.8917 177.103 63.877C177.096 63.8623 177.084 63.851 177.068 63.8456C172.618 62.0996 167.774 61.609 163.064 62.4274C162.955 62.4138 162.955 62.5024 163.064 62.4956Z" fill="#263238"/>
<path d="M161.639 55.4117C165.382 55.6026 167.72 56.2026 171.484 57.3344V57.2935C167.339 55.5617 165.641 55.398 161.618 55.248C161.489 55.3026 161.495 55.4117 161.639 55.4117Z" fill="#263238"/>
<path d="M162.246 68.8027C161.271 69.2596 161.509 69.7709 163.371 70.2005C165.232 70.63 172.971 70.7596 172.698 73.4596C172.425 76.1596 161.509 75.8186 158.462 74.8641C155.414 73.9096 150.825 71.2914 150.825 71.2914C152.987 70.93 158.059 69.5596 162.246 68.8027Z" fill="#EB9481"/>
<path d="M111.668 66.0547C111.62 67.2206 111.511 68.4069 111.348 69.5865C111.348 69.5387 111.348 69.4978 111.395 69.4569C111.62 68.8433 111.845 68.216 112.118 67.6228C112.118 67.6228 112.186 67.6228 112.179 67.6228C112.048 68.2728 111.852 68.9079 111.593 69.5183C111.47 69.8115 111.354 70.0978 111.225 70.3842C111.143 70.9092 111.048 71.4274 110.945 71.9456C110.741 72.9206 109.82 77.066 109.582 77.7683C109.541 77.9115 109.364 77.8774 109.377 77.7138C109.425 76.9501 110.195 72.6342 110.352 71.6524C110.657 69.7567 111.064 67.8789 111.573 66.0274C111.607 65.9933 111.675 66.0206 111.668 66.0547Z" fill="#263238"/>
<path d="M104.577 97.0574C102.757 97.9915 100.411 99.4438 89.8431 97.3642C89.1612 97.2279 88.5203 97.0642 87.8521 96.8665C77.9453 93.8938 66.034 82.2415 65.3862 81.4165C65.3862 81.4165 81.1294 55.896 101.264 47.871C103.752 46.8824 107.87 48.7915 110.127 51.171C110.939 52.0233 112.704 58.2892 112.029 63.3619C111.354 68.4347 106.391 96.1233 104.577 97.0574Z" fill="#01A94D"/>
<path d="M103.159 63.1299C103.235 64.2083 103.084 65.2907 102.716 66.3071C102.63 65.2284 102.781 64.1438 103.159 63.1299Z" fill="white"/>
<path d="M96.2933 80.5088C96.3366 81.0455 96.3183 81.5854 96.2387 82.1179C96.1731 82.6544 96.0426 83.181 95.8501 83.6861C95.8031 83.1472 95.8214 82.6046 95.9046 82.0702C95.9743 81.5366 96.1047 81.0128 96.2933 80.5088Z" fill="white"/>
<path d="M84.6271 67.3711C84.7039 68.4518 84.5529 69.5366 84.1839 70.5552C84.0983 69.4742 84.2495 68.3876 84.6271 67.3711Z" fill="white"/>
<path d="M107.653 79.623C107.696 80.162 107.678 80.7042 107.598 81.239C107.532 81.7755 107.402 82.3021 107.209 82.8071C107.162 82.2683 107.181 81.7257 107.264 81.1912C107.333 80.6553 107.463 80.1291 107.653 79.623Z" fill="white"/>
<path d="M92.6729 65.1211C93.2093 65.0754 93.7492 65.0914 94.2819 65.1688C94.8187 65.2368 95.3453 65.3696 95.8501 65.5642C94.7717 65.6417 93.689 65.4907 92.6729 65.1211Z" fill="white"/>
<path d="M79.4316 77.6725C80.5101 77.5964 81.5925 77.7474 82.6089 78.1157C81.5302 78.2021 80.4456 78.0508 79.4316 77.6725Z" fill="white"/>
<path d="M95.0317 91.261C96.1102 91.1835 97.1929 91.3345 98.209 91.7041C97.1303 91.7893 96.046 91.638 95.0317 91.261Z" fill="white"/>
<path d="M75.3477 86.3248C76.4261 86.2488 77.5085 86.3998 78.5249 86.768C77.4462 86.8531 76.3619 86.7019 75.3477 86.3248Z" fill="white"/>
<path d="M103.057 50.9117C104.136 50.8357 105.218 50.9867 106.234 51.3549C105.156 51.4309 104.074 51.28 103.057 50.9117Z" fill="white"/>
<path d="M99.2048 55.2617C98.8601 55.6761 98.4663 56.047 98.0321 56.3663C97.6096 56.693 97.1523 56.9719 96.6685 57.1981C97.0109 56.7864 97.3998 56.4157 97.8276 56.0935C98.2541 55.7656 98.716 55.4866 99.2048 55.2617Z" fill="white"/>
<path d="M78.2116 67.623C77.8627 68.0338 77.4668 68.4022 77.0321 68.7208C76.6139 69.0537 76.1558 69.3331 75.6685 69.5526C76.0192 69.1436 76.4149 68.7754 76.848 68.4549C77.2672 68.1234 77.7251 67.8441 78.2116 67.623Z" fill="white"/>
<path d="M104.427 73.2002C104.079 73.6131 103.683 73.9838 103.248 74.3047C102.829 74.6362 102.371 74.9155 101.884 75.1366C102.233 74.7237 102.629 74.353 103.064 74.032C103.485 73.7039 103.943 73.4248 104.427 73.2002Z" fill="white"/>
<path d="M87.4504 83.8916C87.1016 84.3045 86.7057 84.6752 86.2709 84.9961C85.851 85.3266 85.3932 85.6059 84.9072 85.828C85.256 85.4151 85.6519 85.0444 86.0868 84.7234C86.5083 84.3953 86.9658 84.1162 87.4504 83.8916Z" fill="white"/>
<path d="M110.932 58.5957C110.583 59.0086 110.187 59.3793 109.752 59.7002C109.33 60.027 108.873 60.3059 108.389 60.5321C108.737 60.1192 109.133 59.7485 109.568 59.4275C109.988 59.097 110.446 58.8178 110.932 58.5957Z" fill="white"/>
<path d="M110.577 70.9846C110.165 70.6358 109.794 70.2399 109.473 69.805C109.141 69.3861 108.862 68.9282 108.641 68.4414C109.055 68.7861 109.426 69.1799 109.746 69.6141C110.071 70.0397 110.35 70.4992 110.577 70.9846Z" fill="white"/>
<path d="M72.7362 79.5207C72.3233 79.1719 71.9526 78.7761 71.6316 78.3412C71.3035 77.9197 71.0244 77.4622 70.7998 76.9775C71.2127 77.3263 71.5834 77.7222 71.9043 78.1571C72.2348 78.577 72.5141 79.0347 72.7362 79.5207Z" fill="white"/>
<path d="M105.975 89.6731C105.561 89.3284 105.19 88.9346 104.87 88.5004C104.544 88.0779 104.265 87.6205 104.039 87.1367C104.451 87.4855 104.822 87.8814 105.143 88.3163C105.472 88.7347 105.751 89.19 105.975 89.6731Z" fill="white"/>
<path d="M89.3182 60.7297C88.9054 60.3833 88.5347 59.9897 88.2137 59.557C87.8883 59.1336 87.6095 58.6764 87.3818 58.1934C87.7962 58.538 88.1671 58.9318 88.4864 59.3661C88.8117 59.7895 89.0906 60.2467 89.3182 60.7297Z" fill="white"/>
<path d="M89.6117 95.4543C89.1988 95.1055 88.8281 94.7097 88.5071 94.2748C88.18 93.8525 87.901 93.3952 87.6753 92.9111C88.0897 93.2558 88.4606 93.6496 88.7798 94.0839C89.1079 94.5078 89.387 94.9676 89.6117 95.4543Z" fill="white"/>
<path d="M92.4413 74.9729C92.0323 74.6221 91.664 74.2265 91.3435 73.7933C91.0107 73.3751 90.7312 72.917 90.5117 72.4297C90.9225 72.7786 91.2909 73.1745 91.6094 73.6092C91.9409 74.0284 92.2202 74.4863 92.4413 74.9729Z" fill="white"/>
<path d="M106.439 57.9685C103.868 57.4912 101.455 52.1799 101.148 48.6071C101.148 48.3617 102.348 46.4185 103.718 43.9844C104.55 42.5049 105.43 40.8344 106.132 39.2526C106.275 38.9321 107.114 40.0162 107.114 40.0162L108.941 41.3799L114.975 46.0094C113.538 47.7336 112.318 49.6273 111.341 51.6481C111.245 51.867 111.172 52.0956 111.123 52.3299C111.12 52.3685 111.12 52.4072 111.123 52.4458C110.748 53.7958 108.914 58.4253 106.439 57.9685Z" fill="#EB9481"/>
<path d="M111.123 52.3637C111.12 52.4022 111.12 52.441 111.123 52.4796C110.764 52.3745 110.416 52.24 110.079 52.0773C103.473 48.9818 106.384 40.1318 106.384 40.1318L108.975 41.4137L115.009 46.0432C113.572 47.7674 112.352 49.6611 111.375 51.6818C111.267 51.8995 111.182 52.128 111.123 52.3637Z" fill="#263238"/>
<path d="M121.909 27.1709C121.909 27.1709 124.93 29.0868 124.943 32.4959C124.957 35.905 123.58 39.2391 123.293 39.3618C123.007 39.4845 121.909 27.1709 121.909 27.1709Z" fill="#263238"/>
<path d="M106.923 28.9437C105.109 32.5233 105.205 43.8074 107.468 46.7119C110.755 50.9256 117.082 52.3778 120.907 48.2119C124.609 44.1756 124.227 29.4756 121.589 26.7347C117.75 22.6847 109.609 23.646 106.923 28.9437Z" fill="#EB9481"/>
<path d="M116.55 37.9775C116.55 37.9775 116.489 38.0184 116.496 38.0457C116.537 38.8162 116.455 39.7025 115.766 39.9753C115.766 39.9753 115.766 40.023 115.766 40.0162C116.618 39.8798 116.714 38.7003 116.55 37.9775Z" fill="#263238"/>
<path d="M115.848 37.1928C114.607 37.1246 114.566 39.6064 115.719 39.6678C116.871 39.7292 116.884 37.2473 115.848 37.1928Z" fill="#263238"/>
<path d="M120.757 37.9502C120.757 37.9502 120.818 37.9502 120.818 38.0184C120.777 38.7888 120.866 39.6752 121.561 39.9411C121.561 39.9411 121.561 39.9888 121.561 39.982C120.702 39.8525 120.6 38.6729 120.757 37.9502Z" fill="#263238"/>
<path d="M121.459 37.1589C122.693 37.0839 122.755 39.5657 121.609 39.6339C120.464 39.7021 120.423 37.2203 121.459 37.1589Z" fill="#263238"/>
<path d="M115.071 35.3047C115.396 35.212 115.717 35.1027 116.032 34.9774C116.39 34.9126 116.716 34.7303 116.959 34.4592C117.018 34.36 117.043 34.2441 117.029 34.1295C117.016 34.0148 116.965 33.9079 116.884 33.8251C116.7 33.6849 116.481 33.5964 116.251 33.5688C116.021 33.5412 115.788 33.5756 115.575 33.6683C115.115 33.7915 114.717 34.0805 114.457 34.4797C114.405 34.5746 114.382 34.6825 114.389 34.7904C114.397 34.8984 114.435 35.0019 114.5 35.0887C114.564 35.1756 114.652 35.2421 114.753 35.2803C114.855 35.3186 114.965 35.3271 115.071 35.3047Z" fill="#263238"/>
<path d="M122.305 36.4023C121.973 36.3281 121.645 36.2371 121.323 36.1295C120.964 36.082 120.63 35.9165 120.375 35.6591C120.31 35.5643 120.278 35.45 120.285 35.3349C120.293 35.2198 120.339 35.1106 120.416 35.025C120.592 34.8746 120.805 34.7744 121.033 34.7348C121.261 34.6952 121.495 34.7177 121.712 34.8C122.178 34.8966 122.591 35.1641 122.871 35.55C122.929 35.6413 122.96 35.7476 122.959 35.856C122.958 35.9644 122.925 36.0702 122.865 36.1606C122.806 36.2509 122.721 36.3218 122.621 36.3647C122.521 36.4076 122.412 36.4207 122.305 36.4023Z" fill="#263238"/>
<path d="M114.805 45.2663C114.989 45.4504 115.166 45.6959 115.446 45.7231C115.732 45.723 116.016 45.6626 116.277 45.5459C116.277 45.5459 116.325 45.5459 116.277 45.5868C116.166 45.7366 116.015 45.8533 115.842 45.9241C115.669 45.995 115.48 46.0174 115.296 45.989C115.14 45.9466 115 45.8593 114.893 45.7381C114.787 45.6169 114.718 45.4671 114.696 45.3072C114.69 45.2928 114.691 45.2767 114.697 45.2627C114.704 45.2486 114.715 45.2376 114.73 45.2322C114.744 45.2268 114.76 45.2273 114.774 45.2337C114.788 45.2401 114.799 45.2519 114.805 45.2663Z" fill="#263238"/>
<path d="M119.264 41.98C119.264 41.98 119.298 43.1255 119.264 43.6641C118.216 43.5529 117.158 43.5897 116.121 43.7732C115.875 43.8277 115.903 43.63 116.182 43.5005C117.018 43.1185 117.948 42.9951 118.855 43.1459C118.909 43.0027 118.766 41.3732 118.855 41.38C119.267 41.461 119.666 41.5987 120.041 41.7891C120.041 39.3891 119.659 37.0164 119.693 34.6164C119.693 34.5346 119.823 34.5209 119.837 34.6164C120.321 37.1553 120.55 39.7364 120.518 42.3209C120.525 42.6141 119.468 42.0891 119.264 41.98Z" fill="#263238"/>
<path d="M117.73 43.2542C117.458 43.9691 116.953 44.5719 116.298 44.9655C115.268 45.3814 114.934 44.4474 115.97 43.6019C116.514 43.3272 117.122 43.2069 117.73 43.2542Z" fill="#263238"/>
<path d="M116.659 44.7544C116.55 44.8431 116.428 44.9143 116.298 44.9658C115.35 45.3476 114.975 44.5908 115.739 43.8271C116.257 43.8681 116.85 44.059 116.659 44.7544Z" fill="#FF99BA"/>
<path d="M106.405 38.591C107.652 38.9728 109.084 35.2228 109.493 33.8183C109.848 32.5501 110.257 28.5206 110.318 28.241C110.38 27.9615 115.773 31.8069 118.896 30.8933C122.018 29.9797 124.139 27.1501 124.186 25.8342C124.234 24.5183 120.327 21.1774 116.952 21.0069C113.577 20.8365 109.002 25.0978 109.002 25.0978C109.555 24.4707 110.057 23.8004 110.502 23.0933C110.448 22.9433 108.266 23.816 107.864 25.3706C107.864 25.3706 108.3 23.4137 108.136 23.3797C107.973 23.3456 106.275 25.016 106.657 26.2842C106.657 26.2842 104.693 27.9819 104.516 29.8433C104.339 31.7047 104.939 38.141 106.405 38.591Z" fill="#263238"/>
<path d="M121.132 30.1839C120.203 30.6874 119.203 31.0461 118.166 31.2475C117.002 31.3513 115.83 31.1639 114.757 30.7021C113.676 30.2843 112.671 29.6898 111.784 28.943C111 28.3021 110.298 27.518 109.459 26.9452C109.248 26.7952 109.009 27.1021 109.139 27.293C110.538 29.2693 112.537 30.7421 114.839 31.493C115.908 31.8416 117.049 31.9067 118.151 31.682C119.253 31.4574 120.278 30.9505 121.125 30.2112C121.125 30.2112 121.146 30.1839 121.132 30.1839Z" fill="#263238"/>
<path d="M107.707 38.257C107.707 38.257 105.771 34.3297 104.025 34.9638C102.28 35.5979 103.343 41.032 105.137 42.0274C105.356 42.1696 105.602 42.2658 105.86 42.3105C106.118 42.3553 106.382 42.3474 106.637 42.2876C106.891 42.2277 107.131 42.1171 107.342 41.9623C107.553 41.8074 107.73 41.6116 107.864 41.3865L107.707 38.257Z" fill="#EB9481"/>
<path d="M104.373 36.5117C104.373 36.5117 104.332 36.5117 104.373 36.5663C105.614 37.3026 106.118 38.6117 106.418 39.9754C106.362 39.831 106.274 39.7006 106.163 39.5933C106.051 39.4859 105.917 39.4041 105.771 39.3535C105.624 39.303 105.468 39.2848 105.314 39.3004C105.16 39.3159 105.011 39.3648 104.877 39.4435C104.836 39.4435 104.877 39.5185 104.877 39.5185C105.121 39.4806 105.371 39.5193 105.592 39.6292C105.813 39.7391 105.994 39.9148 106.111 40.1322C106.306 40.4963 106.462 40.8803 106.575 41.2776C106.616 41.4072 106.841 41.3731 106.82 41.2299C107.114 39.5322 106.159 36.9617 104.373 36.5117Z" fill="#263238"/>
<path d="M94.9228 55.7929C93.5592 63.5179 101.932 89.5429 107.298 94.4043C115.282 101.632 130.043 106.384 135.396 107.932C137.727 108.613 144.177 92.202 141.818 91.1179C136.766 88.8202 121.071 83.9111 119.577 82.6838C118.084 81.4566 109.084 68.4543 105.075 60.9679C99.7092 50.8906 95.5978 51.8861 94.9228 55.7929Z" fill="#EB9481"/>
<path d="M137.843 89.6729C137.843 89.6729 144.811 91.4524 149.305 92.8228C151.814 93.5933 156 95.291 157.589 96.6956C159.961 98.8024 168.539 109.111 166.084 111.246C163.861 113.182 157.616 103.384 157.616 103.384C157.616 103.384 164.789 112.711 161.707 114.546C158.625 116.38 152.986 104.373 152.986 104.373C152.986 104.373 160.139 114.123 156.641 115.507C153.995 116.55 148.323 105.961 148.323 105.961C148.323 105.961 154.418 114.382 151.732 115.575C148.773 116.898 142.93 107.448 142.93 107.448C135.62 109.336 131.339 107.243 128.523 105.402C127.861 104.952 137.843 89.6729 137.843 89.6729Z" fill="#EB9481"/>
<path d="M155.338 99.9957C156.225 101.059 157.125 102.137 157.909 103.275C158.693 104.414 159.436 105.587 160.111 106.793C161.026 108.354 161.758 110.015 162.293 111.743C161.12 108.743 158.373 104.618 157.588 103.48C156.804 102.341 156.075 101.162 155.298 100.023C155.277 99.9957 155.318 99.9684 155.338 99.9957Z" fill="#263238"/>
<path d="M151.173 102.757C152.686 103.957 155.857 108.416 157.077 111.409C157.132 111.532 157.077 111.525 156.989 111.409C156.034 109.929 152.161 104.202 151.139 102.777C151.118 102.757 151.152 102.736 151.173 102.757Z" fill="#263238"/>
<path d="M147.171 104.502C149.051 106.475 150.537 108.789 151.548 111.32C151.596 111.443 151.5 111.422 151.425 111.32C150.014 109.022 148.923 107.229 147.096 104.563C147.068 104.502 147.13 104.441 147.171 104.502Z" fill="#263238"/>
<path d="M102.532 56.3592C96.3068 47.557 92.5841 50.816 93.8318 60.3751C95.0046 69.3138 98.1341 79.9638 98.1341 79.9638L113.816 72.3547C113.816 72.3547 106.493 61.9979 102.532 56.3592Z" fill="#01A94D"/>
<path d="M106.316 59.8232C106.522 60.3204 106.671 60.8398 106.759 61.371C106.855 61.9039 106.889 62.4461 106.861 62.9869C106.657 62.4871 106.51 61.9655 106.425 61.4323C106.323 60.9024 106.287 60.362 106.316 59.8232Z" fill="white"/>
<path d="M97.0229 65.1748C98.0237 64.7678 99.1005 64.5817 100.18 64.6294C99.6824 64.8338 99.163 64.9803 98.632 65.0657C98.102 65.1669 97.5618 65.2036 97.0229 65.1748Z" fill="white"/>
<path d="M97.4254 51.4844C97.0031 52.4808 96.3732 53.3757 95.5776 54.1094C95.9999 53.1129 96.6298 52.218 97.4254 51.4844Z" fill="white"/>
<path d="M110.713 69.2861C110.506 69.7848 110.243 70.2583 109.929 70.6975C109.624 71.1423 109.267 71.5496 108.866 71.9111C109.288 70.9147 109.918 70.0198 110.713 69.2861Z" fill="white"/>
<path d="M99.8047 74.6251C99.3048 74.4205 98.8311 74.1573 98.3933 73.841C97.9483 73.5354 97.541 73.1784 97.1797 72.7773C98.1761 73.1996 99.071 73.8295 99.8047 74.6251Z" fill="white"/>
<path d="M104.577 59.0117C105.416 60.164 106.282 61.289 107.141 62.4208C106.922 61.8481 106.732 61.2685 106.568 60.6822H106.609C106.779 61.1322 106.977 61.5754 107.141 62.0458L107.386 62.7276C107.407 62.7742 107.425 62.822 107.441 62.8708C108.122 63.7504 108.804 64.6299 109.432 65.5299C110.202 66.6072 110.945 67.6981 111.695 68.789C112.445 69.8799 113.202 71.2367 114.013 72.3345C114.088 72.4299 112.65 73.0163 112.493 73.0913C112.336 73.1663 112.254 73.0367 112.404 72.989C112.554 72.9413 113.7 72.239 113.713 72.2254C112.963 71.1208 112.097 70.1049 111.313 69.0344C110.529 67.964 109.752 66.8935 108.995 65.8094C107.461 63.6004 106.057 61.3094 104.529 59.0935L104.577 59.0117Z" fill="#263238"/>
<path d="M94.1999 66.7028C94.4385 67.1665 94.6976 67.6233 94.8817 68.1005L95.1408 68.6937C94.7794 66.996 94.459 65.2846 94.084 63.5869C94.8067 66.3142 95.5363 69.1028 96.2044 71.871C96.8385 74.5165 97.609 77.1892 97.9772 79.8892C98.4526 79.6806 98.9454 79.5141 99.4499 79.3915C98.9436 79.7191 98.3985 79.9825 97.8272 80.1756C97.0053 77.43 96.3226 74.6446 95.7817 71.8301C95.6113 71.0665 95.4544 70.3028 95.2908 69.5392C95.1135 69.0755 94.9022 68.6324 94.6908 68.1755C94.4794 67.7187 94.2885 67.2074 94.0976 66.7233C94.1385 66.696 94.1863 66.6687 94.1999 66.7028Z" fill="#263238"/>
<path d="M98.366 77.3321C100.548 76.1048 109.664 71.3866 111.702 70.5139C111.846 70.4525 111.921 70.5139 111.777 70.6093C107.45 73.1237 102.989 75.3998 98.4137 77.4275C98.3592 77.4412 98.3046 77.3662 98.366 77.3321Z" fill="#263238"/>
<path d="M348.205 256.582H140.468L170.502 86.2295H378.239L348.205 256.582Z" fill="#01A94D"/>
<path d="M241.602 68.584H173.618L170.502 86.2294H243.259L241.602 68.584Z" fill="#01A94D"/>
<g opacity="0.1">
<path d="M348.205 256.582H140.468L170.502 86.2295H378.239L348.205 256.582Z" fill="black"/>
<path d="M241.602 68.584H173.618L170.502 86.2294H243.259L241.602 68.584Z" fill="black"/>
</g>
<path d="M166.282 75.7844C165.827 73.8332 165.827 71.8037 166.282 69.8525C166.736 71.8037 166.736 73.8332 166.282 75.7844Z" fill="#263238"/>
<path d="M160.241 77.5296C159.547 76.8097 158.948 76.003 158.461 75.1296C157.95 74.2744 157.549 73.3581 157.268 72.4023C157.964 73.118 158.563 73.9227 159.048 74.7955C159.557 75.6537 159.958 76.5722 160.241 77.5296Z" fill="#263238"/>
<path d="M155.877 82.0636C153.961 81.481 152.205 80.4663 150.743 79.0977C151.699 79.3755 152.616 79.7742 153.47 80.284C154.344 80.7743 155.152 81.3721 155.877 82.0636Z" fill="#263238"/>
<path d="M154.35 88.173C152.399 88.6276 150.369 88.6276 148.418 88.173C150.369 87.7184 152.399 87.7184 154.35 88.173Z" fill="#263238"/>
<path d="M156.122 94.2139C155.399 94.9045 154.593 95.5023 153.722 95.9934C152.867 96.5033 151.951 96.9019 150.995 97.1798C151.715 96.4855 152.522 95.8874 153.395 95.4002C154.249 94.8879 155.166 94.4891 156.122 94.2139Z" fill="#263238"/>
<path d="M160.65 98.5703C160.07 100.489 159.055 102.248 157.684 103.711C157.962 102.754 158.363 101.837 158.877 100.984C159.363 100.107 159.959 99.2963 160.65 98.5703Z" fill="#263238"/>
<path d="M166.759 100.077C166.996 101.048 167.111 102.044 167.1 103.043C167.114 104.042 167 105.039 166.759 106.009C166.514 105.04 166.4 104.042 166.418 103.043C166.407 102.044 166.521 101.048 166.759 100.077Z" fill="#263238"/>
<path d="M172.8 98.3652C173.494 99.0851 174.092 99.8918 174.579 100.765C175.092 101.619 175.49 102.536 175.766 103.492C174.395 102.03 173.38 100.27 172.8 98.3516V98.3652Z" fill="#263238"/>
<path d="M177.157 93.7979C178.114 94.0731 179.03 94.4719 179.884 94.9842C180.757 95.4714 181.564 96.0695 182.284 96.7638C181.327 96.4885 180.41 96.0897 179.557 95.5774C178.683 95.0902 177.877 94.4921 177.157 93.7979Z" fill="#263238"/>
<path d="M178.664 87.6885C180.617 87.234 182.649 87.234 184.602 87.6885C182.649 88.1429 180.617 88.1429 178.664 87.6885Z" fill="#263238"/>
<path d="M176.918 81.6475C177.64 80.9575 178.446 80.3618 179.318 79.8748C180.17 79.3576 181.087 78.9563 182.045 78.6816C180.582 80.0522 178.823 81.0671 176.904 81.6475H176.918Z" fill="#263238"/>
<path d="M172.384 77.2904C172.664 76.3355 173.063 75.4194 173.57 74.5631C174.057 73.6897 174.655 72.883 175.35 72.1631C175.074 73.1199 174.676 74.0367 174.163 74.8904C173.676 75.7638 173.078 76.5705 172.384 77.2904Z" fill="#263238"/>
<path d="M347.898 256.581H139.718L110.154 92.4131H318.341L347.898 256.581Z" fill="#01A94D"/>
<path d="M182.298 192.77C187.076 192.77 190.95 188.897 190.95 184.118C190.95 179.34 187.076 175.466 182.298 175.466C177.519 175.466 173.646 179.34 173.646 184.118C173.646 188.897 177.519 192.77 182.298 192.77Z" fill="#263238"/>
<path d="M250.698 192.77C255.476 192.77 259.35 188.897 259.35 184.118C259.35 179.34 255.476 175.466 250.698 175.466C245.919 175.466 242.045 179.34 242.045 184.118C242.045 188.897 245.919 192.77 250.698 192.77Z" fill="#263238"/>
<path d="M228.927 194.154L228.45 193.247C228.409 193.166 223.936 184.902 214.943 184.902C206.761 184.902 204.716 192.681 204.661 193.016L204.416 194.004L202.432 193.527L202.67 192.531C202.67 192.436 205.111 182.856 214.943 182.856C225.17 182.856 230.059 191.911 230.263 192.3L230.741 193.2L228.927 194.154Z" fill="#263238"/>
<path d="M334.152 183.456L334.009 182.775C334.452 182.679 334.889 182.577 335.325 182.461L335.496 183.143C335.032 183.259 334.602 183.361 334.152 183.456Z" fill="#263238"/>
<path d="M338.134 182.359L337.916 181.719C338.768 181.425 339.621 181.105 340.446 180.757L340.711 181.384C339.873 181.739 339.007 182.066 338.134 182.359ZM343.214 180.184L342.907 179.584C343.705 179.169 344.502 178.719 345.259 178.221L345.614 178.8C344.836 179.339 344.025 179.796 343.214 180.184ZM347.905 177.3L347.502 176.748C348.239 176.209 348.948 175.644 349.616 175.064L350.066 175.575C349.35 176.196 348.668 176.775 347.898 177.328L347.905 177.3ZM352.064 173.673L351.566 173.203C352.193 172.521 352.786 171.839 353.332 171.157L353.871 171.573C353.305 172.323 352.698 173.025 352.077 173.7L352.064 173.673ZM355.439 169.309L354.859 168.948C355.33 168.186 355.75 167.394 356.114 166.575L356.741 166.855C356.356 167.708 355.918 168.537 355.432 169.337L355.439 169.309ZM357.696 164.25L357.014 164.059C357.263 163.204 357.447 162.331 357.566 161.448L358.248 161.537C358.135 162.464 357.948 163.38 357.689 164.278L357.696 164.25ZM358.452 158.796H357.771V158.598C357.771 157.773 357.723 156.934 357.641 156.109L358.323 156.041C358.412 156.891 358.458 157.744 358.459 158.598L358.452 158.796ZM357.225 153.457C357.042 152.578 356.814 151.709 356.543 150.853L357.225 150.648C357.505 151.534 357.743 152.434 357.907 153.314L357.225 153.457ZM355.609 148.323C355.282 147.519 354.927 146.694 354.491 145.862L355.105 145.555C355.521 146.4 355.902 147.246 356.236 148.064L355.609 148.323ZM353.223 143.462C352.8 142.719 352.336 141.934 351.859 141.13L352.439 140.769C352.936 141.58 353.407 142.371 353.802 143.128L353.223 143.462ZM350.373 138.832C349.875 138.082 349.371 137.325 348.852 136.569L349.418 136.187C349.936 136.944 350.441 137.7 350.939 138.464L350.373 138.832ZM347.305 134.319C346.793 133.569 346.275 132.812 345.771 132.062L346.336 131.68C346.841 132.43 347.352 133.187 347.864 133.93L347.305 134.319ZM344.257 129.778C343.759 129.014 343.275 128.237 342.798 127.459L343.377 127.105C343.855 127.882 344.339 128.646 344.83 129.409L344.257 129.778ZM341.414 125.094C340.95 124.269 340.521 123.45 340.132 122.666L340.746 122.359C341.127 123.137 341.557 123.941 342.007 124.759L341.414 125.094ZM338.993 120.184C338.632 119.332 338.311 118.466 338.011 117.621L338.693 117.403C338.98 118.228 339.3 119.08 339.655 119.919L338.993 120.184ZM337.221 114.982C336.996 114.096 336.798 113.189 336.648 112.255L337.33 112.146C337.48 113.019 337.664 113.905 337.889 114.778L337.221 114.982ZM336.307 109.528C336.239 108.689 336.205 107.844 336.205 106.998V106.773H336.886V106.991C336.886 107.816 336.886 108.648 336.989 109.466L336.307 109.528ZM336.989 104.073L336.307 104.005C336.307 103.821 336.341 103.63 336.361 103.432C336.443 102.703 336.546 101.973 336.668 101.278L337.35 101.394C337.234 102.075 337.132 102.791 337.05 103.507C337.077 103.719 337.077 103.903 337.023 104.094L336.989 104.073ZM337.936 98.7686L337.255 98.5845C337.507 97.6845 337.8 96.8049 338.127 95.9663L338.761 96.2117C338.452 97.056 338.188 97.9163 337.971 98.789L337.936 98.7686ZM371.911 94.7936C371.53 94.7936 371.134 94.739 370.746 94.6845C370.214 94.6095 369.682 94.5208 369.157 94.4186L369.293 93.7367C369.798 93.8322 370.323 93.9208 370.841 93.9958C371.209 94.0436 371.584 94.0777 371.946 94.0981L371.911 94.7936ZM374.714 94.5822L374.571 93.9004C375.426 93.7237 376.247 93.4057 376.998 92.9595L377.352 93.539C376.549 94.036 375.669 94.3954 374.748 94.6027L374.714 94.5822ZM339.9 93.7708L339.293 93.4504C339.727 92.6372 340.208 91.8496 340.732 91.0913L341.291 91.4799C340.793 92.2224 340.34 92.9943 339.934 93.7913L339.9 93.7708ZM366.491 93.7299C365.611 93.4507 364.746 93.1253 363.9 92.7549L364.18 92.1277C364.999 92.4918 365.839 92.8083 366.696 93.0754L366.491 93.7299ZM379.446 91.6027L378.88 91.2208C379.365 90.5165 379.652 89.6947 379.711 88.8413L380.393 88.889C380.335 89.8671 380.015 90.8116 379.466 91.6231L379.446 91.6027ZM361.446 91.5004C360.648 91.0366 359.876 90.529 359.134 89.9799L359.536 89.4345C360.258 89.9669 361.01 90.4586 361.786 90.9072L361.446 91.5004ZM342.968 89.3731L342.464 88.9163C343.081 88.2297 343.739 87.5808 344.434 86.9731L344.884 87.4845C344.215 88.0829 343.582 88.7204 342.989 89.3936L342.968 89.3731ZM357.007 88.2208C356.328 87.5953 355.684 86.9329 355.077 86.2367L355.589 85.7867C356.179 86.463 356.805 87.1071 357.464 87.7163L357.007 88.2208ZM379.2 86.3731C378.809 85.5939 378.27 84.899 377.611 84.3277L378.061 83.8163C378.786 84.4429 379.381 85.2049 379.814 86.0595L379.2 86.3731ZM347.005 85.8345L346.616 85.2754C347.379 84.7546 348.169 84.2744 348.982 83.8367L349.302 84.4367C348.519 84.8696 347.759 85.3429 347.025 85.8549L347.005 85.8345ZM353.373 84.0617C353.114 83.6936 352.861 83.3186 352.623 82.9299L351.736 83.2776L351.477 82.6504L352.261 82.3367C352.139 82.1322 352.016 81.9277 351.9 81.7231L352.493 81.389C352.63 81.6277 352.766 81.8663 352.909 82.0708C353.291 81.9345 353.68 81.8049 354.075 81.6822L354.273 82.364C353.939 82.4663 353.591 82.5754 353.277 82.6913C353.489 83.0254 353.707 83.3731 353.959 83.6663L353.373 84.0617ZM375.416 82.889C374.756 82.5602 374.072 82.2822 373.371 82.0572L372.921 81.914L373.118 81.2322L373.582 81.3822C374.312 81.615 375.024 81.9045 375.709 82.2481L375.416 82.889ZM356.884 81.6686L356.741 80.9867C357.621 80.789 358.534 80.6254 359.468 80.4958L359.571 81.1776C358.671 81.3208 357.777 81.4913 356.905 81.689L356.884 81.6686ZM370.316 81.3004C369.464 81.1504 368.564 81.0345 367.643 80.9527L367.698 80.2708C368.646 80.3527 369.566 80.4686 370.425 80.6254L370.316 81.3004ZM362.236 80.9049L362.189 80.2231C363 80.1754 363.811 80.1481 364.616 80.1481H364.95V80.8299H364.623C363.852 80.8504 363.048 80.8708 362.257 80.9254L362.236 80.9049ZM350.714 79.2754C350.346 78.4436 350.032 77.5777 349.725 76.6981L350.407 76.4867C350.693 77.3458 351.014 78.1913 351.368 79.0027L350.714 79.2754ZM348.989 74.039C348.784 73.1595 348.614 72.2458 348.484 71.3117L349.166 71.2163C349.296 72.1163 349.459 73.0095 349.657 73.8754L348.989 74.039ZM348.225 68.5845C348.191 67.9708 348.171 67.3436 348.171 66.7163C348.171 66.4231 348.171 66.1231 348.171 65.8299H348.852C348.852 66.1231 348.852 66.4095 348.852 66.7026C348.852 67.3163 348.852 67.9367 348.9 68.5299L348.225 68.5845ZM349.036 63.1299L348.355 63.0617C348.45 62.1617 348.58 61.2413 348.736 60.3345L349.418 60.4504C349.234 61.3572 349.105 62.2299 349.016 63.1436L349.036 63.1299ZM349.971 57.8049L349.289 57.6413C349.507 56.7617 349.759 55.8754 350.039 54.989L350.721 55.2004C350.414 56.0936 350.161 56.9595 349.95 57.8186L349.971 57.8049ZM351.607 52.6436L350.973 52.3981C351.307 51.5458 351.655 50.6936 352.071 49.8686L352.684 50.1686C352.275 50.9867 351.914 51.8186 351.586 52.6845L351.607 52.6436ZM353.952 47.7822L353.359 47.4345C353.823 46.6504 354.321 45.8663 354.839 45.1163L355.398 45.5049C354.866 46.2549 354.382 47.0186 353.932 47.7958L353.952 47.7822ZM357.027 43.3436L356.496 42.914C357.068 42.2322 357.682 41.5095 358.316 40.8686L358.807 41.339C358.166 41.9799 357.566 42.6617 357.007 43.3572L357.027 43.3436ZM360.736 39.4163L360.28 38.9117C360.961 38.3049 361.643 37.7049 362.373 37.1254L362.796 37.664C362.066 38.2436 361.371 38.8367 360.716 39.4299L360.736 39.4163ZM364.971 36.0481L364.582 35.4822C365.325 34.9708 366.102 34.4663 366.893 33.989L367.241 34.5686C366.45 35.0526 365.714 35.5504 364.95 36.0617L364.971 36.0481ZM369.6 33.2322L369.28 32.6322C370.084 32.2026 370.916 31.7936 371.748 31.4117L372.034 32.0322C371.168 32.4208 370.371 32.8299 369.58 33.2458L369.6 33.2322ZM374.53 30.9686L374.277 30.3276C375.136 29.9936 376.002 29.6458 376.861 29.3936L377.08 30.0754C376.214 30.3345 375.355 30.6481 374.509 30.9822L374.53 30.9686Z" fill="#263238"/>
<path d="M379.787 29.2435L379.616 28.5617C380.462 28.3435 380.98 28.248 380.98 28.248L381.103 28.9299C381.103 28.9299 380.612 29.0321 379.787 29.2435Z" fill="#263238"/>
<path d="M391.842 24.8392C390.103 19.4529 378.457 21.3892 380.728 28.4324C382.998 35.4756 393.58 30.2324 391.842 24.8392Z" fill="#263238"/>
<path d="M374.393 22.6842C374.482 20.3183 377.768 18.4978 382.418 19.3365C387.068 20.1751 391.439 23.3115 391.439 23.3115C391.439 23.3115 386.85 26.0933 382.153 26.6046C377.455 27.116 374.305 25.0433 374.393 22.6842Z" fill="#EBEBEB"/>
<path d="M391.439 23.2974C389.025 23.2974 386.618 23.2293 384.212 23.1543C381.805 23.0793 379.391 22.9565 376.984 22.7656C379.398 22.7656 381.812 22.827 384.218 22.902C386.625 22.977 389.039 23.0997 391.439 23.2974Z" fill="#263238"/>
<path d="M379.064 20.5771C380.434 21.2327 381.726 22.04 382.916 22.984C382.23 22.6622 381.566 22.2978 380.925 21.8931C380.28 21.491 379.658 21.0517 379.064 20.5771Z" fill="#263238"/>
<path d="M385.385 23.0732C384.151 24.0729 382.814 24.9369 381.396 25.6505C382.636 24.6497 383.98 23.7856 385.405 23.0732H385.385Z" fill="#263238"/>
<path d="M386.086 21.7432C386.775 22.0735 387.377 22.559 387.846 23.1613C387.502 22.999 387.179 22.7952 386.884 22.5545C386.588 22.3154 386.321 22.0431 386.086 21.7432Z" fill="#263238"/>
<path d="M378.825 36.6954C380.278 38.5636 384.007 38.1136 387.287 34.7181C390.566 31.3226 392.305 26.2158 392.305 26.2158C392.305 26.2158 386.932 26.6249 382.834 28.9431C378.737 31.2613 377.366 34.8204 378.825 36.6954Z" fill="#EBEBEB"/>
<path d="M392.305 26.2158C390.341 27.5795 388.432 29.0931 386.516 30.559C384.6 32.0249 382.725 33.5385 380.891 35.0999C382.855 33.7363 384.764 32.2295 386.673 30.7635C388.582 29.2976 390.443 27.784 392.305 26.2158Z" fill="#263238"/>
<path d="M383.836 35.6385C384.201 34.9762 384.526 34.2932 384.811 33.593C385.102 32.8909 385.347 32.1713 385.548 31.4385C385.182 32.1002 384.857 32.7833 384.573 33.4839C384.285 34.1871 384.04 34.9065 383.836 35.6385Z" fill="#263238"/>
<path d="M387.532 29.9384C385.937 29.8531 384.337 29.9377 382.759 30.1907C383.554 30.2384 384.351 30.2384 385.146 30.1907C385.945 30.1517 386.742 30.0674 387.532 29.9384Z" fill="#263238"/>
<path d="M388.848 30.6134C389.03 30.2767 389.172 29.9197 389.271 29.5498C389.372 29.1826 389.431 28.8052 389.448 28.4248C389.086 29.0998 388.881 29.848 388.848 30.6134Z" fill="#263238"/>
<path d="M391.841 24.8386C391.456 24.9636 391.043 24.9716 390.653 24.8614C390.264 24.7513 389.915 24.528 389.653 24.2199C389.39 23.9118 389.225 23.5326 389.178 23.1305C389.131 22.7284 389.204 22.3214 389.389 21.961C389.573 21.6006 389.861 21.3031 390.214 21.1061C390.568 20.9091 390.972 20.8215 391.376 20.8544C391.779 20.8873 392.164 21.0392 392.481 21.2909C392.798 21.5425 393.033 21.8826 393.157 22.2681C393.323 22.7835 393.277 23.3434 393.03 23.8252C392.784 24.307 392.356 24.6714 391.841 24.8386Z" fill="#455A64"/>
<path d="M393.096 28.7318C392.711 28.8563 392.298 28.864 391.908 28.7537C391.519 28.6435 391.172 28.4204 390.909 28.1125C390.647 27.8047 390.482 27.4259 390.434 27.0242C390.387 26.6225 390.46 26.2158 390.644 25.8555C390.828 25.4953 391.115 25.1977 391.468 25.0003C391.821 24.8029 392.224 24.7146 392.628 24.7466C393.031 24.7786 393.416 24.9295 393.733 25.1801C394.051 25.4307 394.287 25.7698 394.412 26.1545C394.494 26.4101 394.526 26.6796 394.505 26.9475C394.484 27.2154 394.41 27.4765 394.288 27.7158C394.165 27.9552 393.997 28.1681 393.793 28.3424C393.588 28.5167 393.351 28.6491 393.096 28.7318Z" fill="#455A64"/>
<path d="M169.561 26.9926C169.234 30.1243 168.044 33.1037 166.123 35.5981C164.201 38.0926 161.624 40.004 158.68 41.1192C155.735 42.2344 152.539 42.5094 149.447 41.9136C146.355 41.3178 143.49 39.8745 141.17 37.7449L132.668 38.9927L136.923 31.6427C135.95 29.2511 135.534 26.6693 135.709 24.0932C135.883 21.5172 136.642 19.0148 137.928 16.7761C139.214 14.5373 140.994 12.6211 143.131 11.173C145.269 9.72494 147.708 8.78304 150.264 8.41888C152.82 8.05472 155.426 8.27787 157.883 9.07139C160.34 9.86491 162.584 11.2079 164.444 12.9984C166.304 14.7889 167.732 16.9798 168.618 19.4046C169.505 21.8295 169.827 24.4245 169.561 26.9926Z" fill="white"/>
<path d="M169.561 26.9929C169.241 30.123 168.061 33.1034 166.152 35.6042C165.219 36.8691 164.094 37.9802 162.818 38.8974C161.57 39.849 160.192 40.6181 158.727 41.1815C157.261 41.7588 155.721 42.1261 154.152 42.2724C153.368 42.3428 152.58 42.3588 151.793 42.3202C151.004 42.2999 150.217 42.2178 149.441 42.0747C146.307 41.4982 143.396 40.0604 141.034 37.9224L141.232 37.9838L132.743 39.2861L132.123 39.3815L132.436 38.8361L136.663 31.4724V31.7656C135.666 29.3299 135.242 26.6974 135.424 24.0717C135.606 21.4459 136.389 18.8972 137.713 16.6224C139.036 14.3548 140.854 12.4156 143.032 10.9497C145.206 9.50327 147.679 8.56786 150.266 8.21362C152.854 7.85937 155.487 8.09548 157.97 8.90424C160.427 9.74 162.666 11.1144 164.523 12.927C166.375 14.735 167.792 16.9413 168.665 19.3784C169.538 21.8156 169.845 24.4196 169.561 26.9929ZM169.561 26.9929C169.837 24.4323 169.52 21.8426 168.636 19.4239C167.752 17.0051 166.323 14.8219 164.461 13.0428C162.599 11.2637 160.353 9.93638 157.896 9.16324C155.44 8.3901 152.838 8.19184 150.293 8.58379C147.773 8.95676 145.373 9.90386 143.277 11.352C141.199 12.8114 139.464 14.7052 138.191 16.902C136.937 19.1036 136.198 21.5605 136.029 24.0883C135.863 26.6333 136.274 29.1829 137.229 31.5474L137.291 31.6974L137.209 31.8406L132.927 39.177L132.627 38.727L141.136 37.5338H141.252L141.334 37.6088C143.608 39.7259 146.427 41.1683 149.475 41.7747C150.234 41.9294 151.005 42.0229 151.779 42.0542C152.553 42.1088 153.33 42.1088 154.104 42.0542C155.657 41.9292 157.185 41.5919 158.645 41.052C160.109 40.519 161.488 39.7747 162.736 38.8429C164.007 37.9331 165.133 36.8366 166.077 35.5906C168.011 33.1019 169.217 30.1258 169.561 26.9929Z" fill="#263238"/>
<path d="M144.354 33.1496C144.341 32.9239 144.375 32.6978 144.453 32.4856C144.53 32.2733 144.651 32.0793 144.807 31.9157C144.963 31.752 145.151 31.6221 145.359 31.5341C145.568 31.4461 145.792 31.4019 146.018 31.4041C146.481 31.4041 146.925 31.588 147.252 31.9154C147.58 32.2427 147.763 32.6867 147.763 33.1496C147.763 33.6125 147.58 34.0565 147.252 34.3838C146.925 34.7112 146.481 34.8951 146.018 34.8951C145.792 34.8973 145.568 34.853 145.359 34.7651C145.151 34.6771 144.963 34.5472 144.807 34.3835C144.651 34.2199 144.53 34.0259 144.453 33.8136C144.375 33.6013 144.341 33.3753 144.354 33.1496ZM145.036 29.12L144.641 15.5928H147.368L146.973 29.12H145.036Z" fill="#01A94D"/>
<path d="M150.838 33.1496C150.825 32.9244 150.858 32.699 150.936 32.4872C151.013 32.2754 151.133 32.0817 151.289 31.9182C151.444 31.7546 151.631 31.6246 151.839 31.5362C152.046 31.4478 152.27 31.4028 152.495 31.4041C152.958 31.4041 153.402 31.588 153.729 31.9154C154.057 32.2427 154.24 32.6867 154.24 33.1496C154.24 33.6125 154.057 34.0565 153.729 34.3838C153.402 34.7112 152.958 34.8951 152.495 34.8951C152.27 34.8964 152.046 34.8514 151.839 34.763C151.631 34.6746 151.444 34.5446 151.289 34.381C151.133 34.2175 151.013 34.0238 150.936 33.812C150.858 33.6002 150.825 33.3747 150.838 33.1496ZM151.52 29.1201L151.145 15.5928H153.872L153.477 29.1201H151.52Z" fill="#01A94D"/>
<path d="M157.316 33.1496C157.303 32.9239 157.336 32.6978 157.414 32.4856C157.492 32.2733 157.613 32.0793 157.769 31.9157C157.925 31.752 158.113 31.6221 158.321 31.5341C158.529 31.4461 158.753 31.4019 158.979 31.4041C159.442 31.4041 159.886 31.588 160.214 31.9154C160.541 32.2427 160.725 32.6867 160.725 33.1496C160.725 33.6125 160.541 34.0565 160.214 34.3838C159.886 34.7112 159.442 34.8951 158.979 34.8951C158.753 34.8973 158.529 34.853 158.321 34.7651C158.113 34.6771 157.925 34.5472 157.769 34.3835C157.613 34.2199 157.492 34.0259 157.414 33.8136C157.336 33.6013 157.303 33.3753 157.316 33.1496ZM157.998 29.12L157.602 15.5928H160.329L159.941 29.12H157.998Z" fill="#01A94D"/>
</svg>
